<?xml version="1.0" encoding="utf-8"?>
<!-- Generator: Adobe Illustrator 24.2.0, SVG Export Plug-In . SVG Version: 6.00 Build 0)  -->
<svg height="512pt" version="1.1" id="Layer_1" xmlns="http://www.w3.org/2000/svg" xmlns:xlink="http://www.w3.org/1999/xlink" x="0px" y="0px"
	 viewBox="0 0 512 512" width="512pt" style="enable-background:new 0 0 512 512;" xml:space="preserve">
<style type="text/css">
	.st0{fill-rule:evenodd;clip-rule:evenodd;fill:#313131;}
	.st1{fill:#313131;}
	.st2{fill:#00AFF0;}
</style>
<g>
	<path class="st0" d="M71.7,224.2c-22.5,0.1-40.7,18.4-40.7,40.9c0.1,22.5,18.4,40.7,40.9,40.7c22.5-0.1,40.7-18.3,40.7-40.8
		C112.5,242.4,94.2,224.2,71.7,224.2z M71.7,301.5c-20.2,0-36.5-16.4-36.4-36.6c0-20.2,16.4-36.5,36.6-36.4
		c20.1,0,36.4,16.4,36.4,36.5C108.3,285.2,91.9,301.5,71.7,301.5L71.7,301.5z"/>
	<path class="st1" d="M122.4,295.1h5.2v-31.5c0-11.3,8.2-19.4,18.9-19.4c11,0,17.3,7.4,17.3,18.5v32.3h5.2v-33.2
		c0-13-8-22.4-21.7-22.4c-9.9,0-16,5-19.6,11.4v-10.1h-5.2L122.4,295.1z M188.5,217.3h5.2v77.8h-5.2V217.3z M221,312.5
		c7.8,0,13.3-4.1,18.1-15.5l23.6-56.3h-5.8l-19.6,48.6l-22.6-48.6h-6.1l26.1,54.1c-4.1,9.5-7.8,12.8-13.4,12.8
		c-3.2,0.1-6.4-0.6-9.3-2l-1.8,4.6C213.5,311.7,217.2,312.5,221,312.5z"/>
	<path class="st2" d="M320.1,237.2c1.5-2.3,3.1-4.8,4.6-7.3c1.6-2.5,3-5,4.3-7.3c1.3-2.3,2.3-4.4,3.2-6.3c0.7-1.4,1.1-2.8,1.2-4.4
		c0.1-2.1-0.6-4.2-2-5.9c-1.4-1.7-3.2-3-5.2-3.9c-2.3-1.1-4.8-1.8-7.3-2.2c-2.8-0.4-5.7-0.6-8.5-0.6c-9.6-0.1-19.2,1-28.5,3.1
		c-8.2,1.9-16.2,4.5-23.8,7.9c-6.6,2.9-13,6.5-18.9,10.6c-4.9,3.4-9.5,7.1-13.8,11.2c-3.2,2.9-6,6.2-8.4,9.7c-1.9,2.9-2.8,5-2.8,6.3
		c0,1.5,0.4,3,1.4,4.3c0.8,1.1,1.8,2,3,2.7c0.9,0.6,2,0.8,3,0.8c0.9-0.1,1.4-0.6,1.4-1.4c0-1.7,1-4,3.1-7.2
		c2.6-3.7,5.5-7.2,8.8-10.3c4.3-4.1,8.9-7.9,13.8-11.4c11.9-8.5,25.3-14.7,39.5-18.4c7.9-2,15.9-3,24.1-2.9c2-0.1,4.1,0.2,6,0.8
		c1.2,0.4,2.4,1.1,3.2,2.1c0.7,0.8,1.1,1.7,1.3,2.7c0.1,0.9,0.2,1.8,0.2,2.7c-0.1,1.7-0.5,3.3-1.3,4.8c-1,2.2-2.1,4.4-3.3,6.5
		c-1.4,2.4-2.9,4.8-4.6,7.3c-1.7,2.5-3.3,4.8-5,7.1c-6.6,0.8-13,2-19.4,3.7c-5,1.3-9.9,3.1-14.5,5.4c-3.4,1.6-6.5,3.8-9.1,6.5
		c-2.1,2.3-3.2,4.6-3.2,7c0,1.3,0.3,2.6,0.9,3.8c0.4,0.9,1.1,1.7,1.9,2.3c0.5,0.4,1.2,0.6,1.9,0.6c0.6-0.1,0.9-0.6,0.9-1.6
		c0-0.9,0.8-2.2,2.3-3.9c2-2.1,4.3-3.9,6.8-5.5c3.5-2.3,7.1-4.2,11-5.9c4.9-2.2,9.9-3.9,15.1-5.2c-3.7,4.8-7.3,9.5-11,14.1
		c-3.7,4.6-7,9.1-10,13.4c-2.7,3.9-5.1,8.1-7.2,12.4c-1.7,3.4-2.6,7.1-2.7,10.9c0,1.5,0.2,3,0.6,4.5c0.4,1.3,0.9,2.5,1.7,3.7
		c0.6,1,1.5,1.8,2.4,2.5c0.8,0.6,1.8,0.9,2.8,0.9c0.5,0,1.1-0.2,1.5-0.5c0.4-0.4,0.6-0.9,0.7-1.4c0.1-0.6,0.2-1.2,0.2-1.8v-1.9
		c0-3.3,1.1-7.2,3.2-11.7c2.4-5,5.1-9.9,8.1-14.6c3.3-5.2,6.9-10.6,10.8-16.3c4-5.6,7.8-11.2,11.6-16.7c6.4-1,12.8-1.4,19.2-1.4
		c1.3,0,2.7,0.1,4,0.5c0.9,0.3,1.8,0.6,2.6,1c0.5,0.2,0.9,0.4,1.4,0.6c0.3,0.1,0.4-0.2,0.4-0.7c0-1.6-0.7-3.1-1.8-4.2
		c-1.2-1.3-3.1-1.9-5.6-1.9C330.7,236.7,325.2,236.9,320.1,237.2L320.1,237.2z"/>
	<path class="st2" d="M383.1,256.1c-1.6,2.2-3.4,4.6-5.4,7.2c-2,2.6-4.1,5.3-6.4,8c-2.3,2.7-4.4,5.2-6.5,7.4
		c-1.8,1.9-3.7,3.8-5.8,5.5c-1.8,1.4-3.2,2.2-4.2,2.2c-1.4,0-2-0.7-1.9-2c0.3-1.8,0.9-3.5,1.8-5c1-2,2.3-4.2,3.9-6.5
		c1.6-2.4,3.1-4.6,4.6-6.6s2.8-3.8,3.8-5.2c0.6-0.7,1.2-1.6,1.6-2.4c0-0.2-0.2-0.5-0.5-0.8c-0.4-0.3-0.9-0.6-1.4-0.8
		c-0.5-0.3-1.1-0.5-1.8-0.8c-0.6-0.2-1.2-0.4-1.8-0.5c0.6-1.6,1-3.3,1-5c0-1.5-0.2-3-0.5-4.4c-0.3-1.3-0.8-2.4-1.6-3.5
		c-0.8-1-1.7-1.8-2.9-2.3c-1.4-0.6-2.9-0.9-4.4-0.8c-3.4,0-6.8,0.7-10,2c-3.2,1.4-6.2,3.2-8.9,5.4c-2.8,2.3-5.4,4.8-7.6,7.6
		c-2.2,2.7-4.2,5.7-5.9,8.7c-1.5,2.8-2.8,5.7-3.7,8.8c-0.8,2.5-1.3,5.1-1.3,7.7c-0.1,2.3,0.3,4.6,1.2,6.8c0.7,1.7,1.7,3.2,3.1,4.4
		c1.2,1.1,2.6,1.9,4.1,2.4c1.3,0.5,2.7,0.7,4.1,0.7c1.8,0,3.6-0.5,5.1-1.4c1.5-0.9,3-1.9,4.3-3.1c1.5-1.4,2.7-3,3.8-4.7
		c-0.2,1.6-0.1,3.1,0.3,4.7c0.3,1.2,1,2.3,1.9,3.2c0.9,1,2.5,1.4,4.5,1.4c1.6,0,3.5-0.8,5.8-2.5c2.6-1.9,5-4,7.2-6.3
		c2.5-2.6,5.1-5.4,7.8-8.7c2.7-3.2,5.2-6.4,7.6-9.4c2.4-3.1,4.6-6,6.5-8.7c2-2.7,3.5-4.8,4.6-6.3c0.2-0.3,0.3-0.7,0.3-1.1
		c0-0.3-0.2-0.6-0.5-0.7c-0.3-0.1-0.7-0.2-1-0.1c-0.4,0.1-0.8,0.4-1.1,0.7C385.9,252.3,384.7,253.9,383.1,256.1L383.1,256.1z
		 M326.8,286.3c-0.5-2.7-0.4-5.5,0.4-8.1c0.9-3.6,2.1-7.2,3.7-10.5c1.7-3.7,3.8-7.2,6.2-10.5c2.3-3.1,5-5.8,8-8.1
		c2.6-2,5.7-3.2,9-3.3c1.1-0.1,2.2,0.4,2.8,1.3c0.6,1,0.9,2.2,0.9,3.4c0,2-0.4,3.9-1.3,5.7c-0.8,1.7-1.7,3.3-2.8,4.8
		c-0.8,1.2-1.8,2.3-2.8,3.4c-0.5,0.4-0.9,0.9-1.2,1.5c0.1,0.4,0.3,0.7,0.6,1c0.4,0.6,0.9,1.1,1.3,1.7c-1.6,2.4-3.4,4.8-5.2,7.3
		c-1.7,2.3-3.5,4.6-5.4,6.7c-1.6,1.8-3.4,3.5-5.4,5c-1.4,1.2-3.2,1.8-5,1.9C328.5,289.5,327.2,288.4,326.8,286.3z"/>
	<path class="st2" d="M409,291.6c2.6-1.9,5-4,7.3-6.3c2.5-2.6,5.1-5.4,7.7-8.7c2.6-3.2,5.1-6.4,7.4-9.4c2.3-3.1,4.4-6,6.3-8.7
		c1.9-2.7,3.4-4.8,4.5-6.3c0.2-0.3,0.3-0.7,0.3-1.1c0-0.3-0.2-0.6-0.5-0.7c-0.3-0.1-0.7-0.2-1-0.1c-0.4,0.1-0.8,0.4-1.1,0.7
		c-0.8,1.1-2,2.7-3.6,4.9c-1.6,2.2-3.4,4.6-5.4,7.2c-2,2.6-4.1,5.3-6.4,8s-4.4,5.2-6.5,7.4c-1.8,1.9-3.7,3.8-5.8,5.5
		c-1.8,1.4-3.2,2.2-4.2,2.2c-1.2,0-1.9-0.4-2-1.2c0-1.1,0.2-2.3,0.8-3.2c0.8-1.7,1.8-3.3,2.9-4.8c1.3-1.8,2.7-3.8,4.2-5.9
		c1.5-2.1,3-4.2,4.6-6.5c1.6-2.2,3-4.4,4.3-6.5c1.2-2,2.2-4,3.2-6.2c0.8-1.6,1.2-3.4,1.2-5.2c0.1-1.9-0.4-3.8-1.4-5.4
		c-0.9-1.3-2.4-1.9-4.5-1.9c-2.2,0.1-4.4,0.7-6.3,1.8c-2.4,1.3-4.6,2.8-6.6,4.5c-2.2,1.8-4.3,3.8-6.3,5.9c-2,2.1-3.8,4-5.4,5.9
		c-1.6,1.8-2.9,3.3-3.9,4.5c-0.5,0.7-1.1,1.3-1.7,1.8c-0.2,0,0.1-0.7,0.8-2s1.5-2.9,2.5-4.8c0.9-1.9,1.8-3.8,2.6-5.9
		c0.7-1.7,1.1-3.5,1.2-5.3c0-1.3-0.4-2.6-1.3-3.5c-0.8-0.9-1.7-1.6-2.8-2.1c-0.9-0.4-1.8-0.7-2.7-0.7c-0.8,0-1.2,0.1-1.2,0.3
		c-0.2,2.7-0.8,5.4-1.9,7.8c-1.4,3.5-3,7-4.7,10.3c-1.9,3.7-3.9,7.4-6.1,11.2c-2.2,3.8-4.3,7.2-6.2,10.4c-1.9,3.1-3.5,5.6-4.7,7.6
		c-0.7,1-1.4,2.1-1.9,3.2c0.1,0.3,0.2,0.6,0.4,0.9c0.3,0.5,0.8,0.9,1.2,1.2c0.6,0.4,1.2,0.8,1.9,1.1c0.8,0.3,1.6,0.5,2.4,0.5
		c0.5,0,1.4-0.7,2.6-2.1c1.3-1.4,2.8-3.2,4.6-5.5c1.8-2.3,3.8-4.8,6-7.7c2.2-2.9,4.5-5.9,6.9-8.9c2.3-3,4.7-6,7.1-8.9
		s4.7-5.5,6.9-7.7c1.9-2,3.9-3.8,6-5.5c1.8-1.4,3.4-2.1,4.6-2.1c1.5,0,2.1,0.6,1.7,1.9c-0.7,1.8-1.6,3.4-2.8,4.9
		c-1.5,2-3.3,4.4-5.4,7.1c-2.1,2.7-4.2,5.5-6.1,8.4c-1.9,2.8-3.6,5.7-5,8.7c-1.3,2.6-2,5.4-2.1,8.2c-0.1,1.5,0.2,3.1,0.7,4.5
		c0.5,1.2,1.2,2.2,2.2,3c1.3,1,2.9,1.5,4.5,1.4C404.6,294.1,406.6,293.3,409,291.6L409,291.6z"/>
	<path class="st2" d="M475.9,254.6c-1.1,1.5-2.3,3.1-3.7,5c-1.4,1.9-2.8,3.8-4.4,5.9c-1.6,2.1-3.2,4.1-4.9,6c-1.6,2-3.2,3.8-4.8,5.5
		c-1.4,1.5-2.8,3-4.4,4.3c0.3-1,0.5-2.1,0.7-3.2c0.1-1.1,0.2-2.2,0.2-3.2c0-2.6-0.2-5.2-0.7-7.8c-0.5-2.6-1-5.2-1.6-7.9
		c-0.6-2.7-1.1-5.3-1.6-8c-0.5-2.7-0.7-5.4-0.7-8.1c0-1.7,0.3-3.3,1.1-4.9c0.7-1.3,1.5-2.6,2.4-3.8c0.9-1.1,1.6-2.1,2.4-3
		c0.6-0.7,1-1.5,1.1-2.4c0-0.6-0.3-1-0.8-1.3c-0.6-0.4-1.4-0.6-2.1-0.6c-1.9,0-3.7,0.4-5.4,1.1c-3.7,1.5-6.7,4.2-8.6,7.7
		c-0.9,1.7-1.4,3.7-1.4,5.7c0.1,2.4,0.3,4.8,0.8,7.2c0.5,3,1.1,6.3,1.6,9.8c0.6,3.5,1,7.1,1.4,10.6c0.3,3.2,0.3,6.5,0,9.7
		c-0.2,2.5-1,4.9-2.3,7.1c-1.2,1.8-3.1,2.7-5.8,2.7s-4.4-0.7-5.4-2.1c-1-1.3-1.6-2.9-1.6-4.5c0-0.7-0.1-1.4-0.5-2
		c-0.3-0.4-0.7-0.6-1.2-0.6c-0.5,0.1-1,0.4-1.2,0.9c-0.4,0.8-0.6,1.7-0.5,2.6c0,1.3,0.2,2.7,0.7,3.9c0.5,1.3,1.2,2.5,2.1,3.5
		c1,1.1,2.3,2,3.6,2.6c1.6,0.7,3.4,1.1,5.2,1h1.4c3.1-0.1,6.1-0.9,8.8-2.5c3.2-1.8,6.1-3.9,8.8-6.3c3-2.7,5.8-5.6,8.3-8.7
		c2.6-3.1,5.1-6.2,7.4-9.4c2.3-3.1,4.3-6,6.1-8.7c1.8-2.7,3.3-4.8,4.4-6.3c0.2-0.3,0.3-0.7,0.2-1.1c-0.1-0.3-0.3-0.6-0.5-0.7
		c-0.3-0.1-0.6-0.2-1-0.1c-0.4,0.1-0.8,0.4-1,0.7C477.8,252,477,253.2,475.9,254.6L475.9,254.6z"/>
	<path class="st2" d="M88.6,262.3V259c0-4-1.6-7.8-4.5-10.6c-2.9-2.8-6.7-4.4-10.8-4.4h-2.7c-4,0-7.9,1.6-10.8,4.4
		c-2.9,2.8-4.5,6.6-4.5,10.6v3.3l-1.9,3.4v4.9c0,4.4,1.8,8.7,5,11.8c3.2,3.1,7.5,4.9,12,4.9h3c4.5,0,8.8-1.8,12-4.9
		c3.2-3.1,5-7.3,5-11.8v-4.9L88.6,262.3z M73.8,277.4v3.9c0,0.6-0.3,1.1-0.8,1.4h-0.7c-0.1,0-0.2,0-0.3,0h-0.2c-0.1,0-0.1,0-0.2,0
		h-0.3c-0.5-0.3-0.8-0.9-0.8-1.5v-3.9c-2.4-0.9-3.6-3.6-2.7-6.1c0.7-1.8,2.5-3,4.4-3h0.1c2.6,0,4.7,2,4.7,4.6c0,2-1.2,3.7-3,4.4
		H73.8z M81.8,262.5H62.2V259c0-2.2,0.9-4.3,2.5-5.9c1.6-1.6,3.7-2.5,5.9-2.5h2.7c2.2,0,4.4,0.9,5.9,2.5c1.6,1.5,2.5,3.6,2.5,5.9
		L81.8,262.5z"/>
</g>
</svg>
