<?xml version="1.0" encoding="iso-8859-1"?>
<!-- Generator: Adobe Illustrator 16.0.0, SVG Export Plug-In . SVG Version: 6.00 Build 0)  -->
<!DOCTYPE svg PUBLIC "-//W3C//DTD SVG 1.1//EN" "http://www.w3.org/Graphics/SVG/1.1/DTD/svg11.dtd">
<svg version="1.1" id="Capa_1" xmlns="http://www.w3.org/2000/svg" xmlns:xlink="http://www.w3.org/1999/xlink" x="0px" y="0px"
	 width="339.728px" height="339.728px" viewBox="0 0 339.728 339.728" style="enable-background:new 0 0 339.728 339.728;"
	 xml:space="preserve">
<g>
	<g>
		<path d="M29.944,327.94c-7.956-1.224-4.284-14.076-3.06-18.972c1.224-4.284-5.508-6.12-6.732-1.836
			c-3.06,9.18-3.06,25.703,9.792,25.703C33.004,332.225,32.392,327.94,29.944,327.94z"/>
		<path d="M20.152,244.097c-3.06,9.18-2.448,19.584-1.836,29.376c0,2.447,3.672,2.447,3.672,0c0.612-9.792,1.836-18.36,4.284-27.54
			C28.108,241.648,21.376,239.812,20.152,244.097z"/>
		<path d="M24.436,186.568c-4.896,9.792-3.06,22.644-2.448,33.048c0,1.836,3.06,1.836,3.06,0c0.612-4.896,0.612-9.792,1.224-15.3
			c0.612-5.508,2.448-10.404,3.06-15.912C29.944,185.956,25.66,183.509,24.436,186.568z"/>
		<path d="M28.72,127.205c-0.612-2.448-3.672-2.448-4.284,0c-2.448,9.18,0,18.972-2.448,28.764c-0.612,1.836,2.448,3.06,3.06,0.612
			C28.108,148.013,31.168,136.997,28.72,127.205z"/>
		<path d="M40.96,55.601c-12.24,6.12-13.464,22.032-12.852,34.272c0,1.836,3.06,1.836,3.06,0
			c0.612-11.629,4.896-21.421,12.852-29.376C47.08,58.049,44.02,54.377,40.96,55.601z"/>
		<path d="M90.532,20.717c-11.016-2.448-22.644,4.896-30.6,11.016c-1.836,1.225,0.612,3.672,2.448,3.061
			c4.284-2.448,9.18-4.284,14.076-5.509c4.896-1.224,9.792-1.224,14.076-2.447C93.592,25.612,93.592,21.328,90.532,20.717z"/>
		<path d="M131.536,18.881c-1.836-0.612-3.06,2.447-0.612,3.06c3.672,1.836,7.344,3.061,11.016,6.12
			c3.06,2.448,4.284,6.12,6.12,9.792c1.224,1.836,5.508,1.224,4.896-1.224C151.732,25.612,140.104,21.328,131.536,18.881z"/>
		<path d="M158.464,67.229c-1.224-2.448-4.896-1.836-4.284,1.224c2.448,9.181-0.612,19.584,2.448,28.765
			c0.612,3.06,4.896,3.06,6.12,0C165.196,87.425,161.524,75.797,158.464,67.229z"/>
		<path d="M161.524,127.816c0-2.448-3.672-2.448-4.284,0c-1.224,8.568-3.06,17.748-1.224,26.316c0.612,3.06,5.508,3.06,6.12,0
			C164.584,145.564,162.136,136.385,161.524,127.816z"/>
		<path d="M158.464,184.12c-0.612-3.06-4.896-1.836-4.284,1.225c1.224,6.731,1.836,13.464,1.836,20.195
			c0,6.732-1.224,14.688,1.224,20.809c0.612,2.448,4.284,2.448,4.896,0C166.42,214.721,162.136,196.36,158.464,184.12z"/>
		<path d="M165.196,291.221c-2.448-12.24-6.12-24.48-1.224-36.721c0.612-1.836-1.836-3.06-3.06-1.224
			c-6.732,12.852-6.732,26.928-1.224,40.392C161.524,296.729,165.808,294.28,165.196,291.221z"/>
		<path d="M211.097,334.061c-3.672-1.836-7.956-3.061-11.628-4.284c-6.12-2.448-12.24-6.12-17.137-10.404
			c-1.224-1.224-3.672,0.612-2.447,2.448c7.344,7.956,18.359,15.912,29.376,17.136C212.933,339.568,213.544,335.284,211.097,334.061
			z"/>
		<path d="M268.013,327.94c-3.061,3.672-5.509,6.12-9.792,7.344c-4.284,1.225-8.568,0.612-12.853-0.612
			c-1.836-0.611-2.447,1.837-0.611,2.448c10.403,3.672,22.031,4.896,28.151-6.12C274.133,328.553,270.46,325.492,268.013,327.94z"/>
		<path d="M289.433,274.696c-5.508,9.18-3.672,22.032-6.12,32.437c-0.612,3.672,4.284,4.896,5.508,1.224
			c1.836-4.896,3.061-10.404,3.672-15.912c1.225-5.508,2.448-11.016,3.061-16.524C295.553,273.473,291.269,272.248,289.433,274.696z
			"/>
		<path d="M294.94,215.944c-0.612-2.448-4.896-2.448-4.896,0c-1.836,10.404,0,22.032,1.225,32.437c0,1.836,3.06,1.836,3.06,0
			C294.94,237.364,296.776,226.349,294.94,215.944z"/>
		<path d="M292.492,152.908c-0.611-4.283-6.12-4.283-6.731,0c-1.225,9.792,0.611,18.973,1.224,28.152c0,3.06,4.896,3.06,4.896,0
			C291.881,171.881,293.717,162.7,292.492,152.908z"/>
		<path d="M288.82,92.32c-1.224-3.06-4.896-3.06-6.12,0c-1.224,3.672-0.612,8.568,0,12.24c0,3.672,0.612,6.732,1.225,10.404
			c0,3.06,4.283,3.06,4.283,0c0-3.672,0.612-6.732,1.225-10.404C289.433,100.889,290.044,95.992,288.82,92.32z"/>
		<path d="M285.148,47.645c-1.224-1.836-3.672-1.836-4.284,0c-3.06,4.896,1.224,11.016-2.448,15.912
			c-1.224,1.836,1.836,4.284,3.061,2.448c2.448-1.836,3.06-4.896,4.284-7.956C285.761,54.988,286.372,50.093,285.148,47.645z"/>
		<path d="M291.269,0.521c-15.912-3.672-25.704,12.853-30.601,25.092c-1.224,3.061,3.673,5.508,5.509,2.448
			c5.508-10.404,13.464-23.868,26.928-16.524c11.628,6.12,14.076,20.196,20.196,29.988c3.06,4.896,9.18,1.836,8.567-3.672
			C320.032,23.776,305.956,4.192,291.269,0.521z"/>
	</g>
</g>
<g>
</g>
<g>
</g>
<g>
</g>
<g>
</g>
<g>
</g>
<g>
</g>
<g>
</g>
<g>
</g>
<g>
</g>
<g>
</g>
<g>
</g>
<g>
</g>
<g>
</g>
<g>
</g>
<g>
</g>
</svg>
