<?xml version="1.0" encoding="iso-8859-1"?>
<!-- Generator: Adobe Illustrator 19.0.0, SVG Export Plug-In . SVG Version: 6.00 Build 0)  -->
<svg version="1.1" id="Capa_1" xmlns="http://www.w3.org/2000/svg" xmlns:xlink="http://www.w3.org/1999/xlink" x="0px" y="0px"
	 viewBox="0 0 512 512" style="enable-background:new 0 0 512 512;" xml:space="preserve">
<g>
	<g>
		<g>
			<path d="M115.337,201.143c6.949,0,9.143-2.194,9.143-9.143c0-14.811-28.891-36.571-54.857-36.571
				c-18.835,0-27.429,4.754-27.429,9.143C42.194,183.68,77.029,201.143,115.337,201.143z"/>
			<path d="M444.48,0H298.103c-1.47,70.055-9.706,139.804-24.594,208.274c52.336-13.134,105.72-21.669,159.543-25.509
				C437.257,173.074,444.206,136.411,444.48,0z"/>
			<path d="M453.074,200.594c-6.308,0-13.074,0.274-20.022,0.64c-2.743,0.091-5.486,0.274-8.319,0.457
				c-6.584,0.457-13.349,1.097-20.298,1.829c-0.457,0-0.823,0.091-1.28,0.091c-13.257,1.463-27.063,3.383-41.234,5.669
				c-0.205,0.075-0.423,0.106-0.64,0.092c-12.983,2.103-26.24,4.571-39.68,7.223c-2.743,0.549-5.487,1.097-8.23,1.737
				c-2.742,0.549-5.576,1.097-8.411,1.737c-4.937,1.097-9.875,2.103-14.629,3.2l-2.194,0.549
				c-6.309,1.371-12.343,2.834-18.104,4.206c-14.444,3.474-28.891,7.131-42.971,10.88c-11.956,3.271-20.26,14.119-20.296,26.514
				v11.429c-0.02,7.877-5.058,14.865-12.526,17.371l-54.401,18.103c-12.173,3.99-24.691,6.836-37.393,8.503
				c-48.183,6.766-96.824,31.817-96.824,72.32c0,37.76,34.835,45.714,64,45.714c41.143,0,91.429-33.737,91.429-73.143v-2.103
				c-0.692-15.812,8.864-30.275,23.681-35.84l321.645-119.68C489.208,202.391,471.149,199.851,453.074,200.594z M142.766,365.714
				c0,26.697-37.577,54.857-73.143,54.857c-42.423,0-45.714-21.029-45.714-27.429c0-33.92,47.451-54.857,91.429-54.857
				c7.443-0.604,14.777,2.091,20.057,7.371S143.37,358.271,142.766,365.714z M252.48,274.286c-5.049,0-9.143-4.093-9.143-9.143
				c0-5.049,4.093-9.143,9.143-9.143c5.049,0,9.143,4.093,9.143,9.143C261.608,270.186,257.523,274.271,252.48,274.286z"/>
			<path d="M102.447,236.251c12.704,1.696,25.223,4.573,37.393,8.594l49.006,16.274c0.931-9.665,4.9-18.787,11.337-26.057
				l-15.451-5.76c-14.833-5.544-24.399-20.021-23.681-35.84v-2.011c0-40.229-50.011-72.594-91.429-72.594
				c-42.423,0-64,15.177-64,45.166C5.623,204.526,54.263,229.486,102.447,236.251z M69.623,137.143
				c35.566,0,73.143,28.16,73.143,54.857c0.604,7.443-2.091,14.777-7.372,20.057c-5.281,5.281-12.614,7.976-20.057,7.371
				c-43.978,0-91.429-20.937-91.429-54.857C23.909,158.171,27.2,137.143,69.623,137.143z"/>
			<path d="M115.337,356.571c-38.308,0-73.143,17.463-73.143,36.571c0,4.389,8.594,9.143,27.429,9.143
				c25.967,0,54.857-21.76,54.857-36.571C124.48,358.766,122.286,356.571,115.337,356.571z"/>
			<path d="M289.143,512H444.48c0.366-87.497,6.033-187.886,8.319-224.274l-155.063,57.143
				C296.091,368.731,289.784,459.703,289.143,512z"/>
		</g>
	</g>
</g>
<g>
</g>
<g>
</g>
<g>
</g>
<g>
</g>
<g>
</g>
<g>
</g>
<g>
</g>
<g>
</g>
<g>
</g>
<g>
</g>
<g>
</g>
<g>
</g>
<g>
</g>
<g>
</g>
<g>
</g>
</svg>
