<svg id="Layer_1" enable-background="new 0 0 509.459 509.459" height="512" viewBox="0 0 509.459 509.459" width="512" xmlns="http://www.w3.org/2000/svg"><g><path d="m257.942 90.542v-60.542h45v-30h-120v30h45v60.542c10.174-.722 19.827-.722 30 0z"/><path d="m430.442 133.713 24.32 24.32 21.213-21.213-64.925-64.926-21.213 21.213 19.393 19.394-28.848 28.848c.203.176.397.361.6.538-33.408-29.202-76.116-48.017-123.039-51.344v59.457h-30v-59.458c-103.864 7.366-187.092 90.595-194.46 194.458h59.459v30h-59.459c7.367 103.863 90.596 187.093 194.459 194.459v-59.459h30v59.459c103.864-7.366 187.093-90.596 194.459-194.459h-59.459v-30h59.459c-3.328-46.923-22.142-89.631-51.344-123.038.176.202.361.396.537.599zm-247.5 252.135v-171.696l150.235 85.848z"/><path d="m212.942 265.848v68.304l59.768-34.152z"/></g></svg>